<?xml version="1.0" standalone="no"?>
<!DOCTYPE svg PUBLIC "-//W3C//DTD SVG 20010904//EN"
 "http://www.w3.org/TR/2001/REC-SVG-20010904/DTD/svg10.dtd">
<svg version="1.0" xmlns="http://www.w3.org/2000/svg"
 width="1782.000000pt" height="1766.000000pt" viewBox="0 0 1782.000000 1766.000000"
 preserveAspectRatio="xMidYMid meet">

<g transform="translate(0.000000,1766.000000) scale(0.100000,-0.100000)"
fill="#000000" stroke="none">
<path d="M0 8830 l0 -8830 8910 0 8910 0 0 8830 0 8830 -8910 0 -8910 0 0
-8830z m9718 6480 c75 0 275 -17 422 -36 52 -6 298 -50 353 -63 27 -6 53 -9
58 -6 5 4 9 1 9 -4 0 -6 7 -11 16 -11 17 0 237 -48 264 -58 8 -3 20 -6 25 -6
6 -1 37 -11 69 -24 33 -13 65 -21 73 -18 9 4 11 1 7 -6 -5 -7 0 -9 14 -6 14 4
20 2 16 -4 -5 -7 2 -9 20 -4 20 5 26 4 20 -5 -5 -9 -1 -10 15 -6 13 3 20 3 17
0 -6 -6 17 -16 94 -43 14 -5 50 -18 80 -30 30 -12 60 -23 65 -24 6 -2 27 -10
47 -20 21 -9 44 -16 52 -16 8 0 16 -5 18 -12 2 -6 13 -12 25 -13 11 0 33 -9
48 -19 14 -10 33 -15 41 -12 8 3 13 2 10 -2 -2 -4 55 -37 127 -72 73 -35 148
-74 167 -85 19 -12 41 -20 49 -17 9 3 11 0 6 -8 -6 -10 -4 -12 9 -7 9 4 15 3
12 -2 -3 -5 9 -15 27 -22 17 -7 50 -26 71 -41 44 -32 65 -37 45 -10 -13 15
-12 16 3 3 10 -7 15 -17 13 -22 -3 -4 16 -20 42 -35 27 -16 87 -54 135 -86 48
-32 92 -58 97 -58 6 0 14 -6 18 -13 11 -19 114 -90 130 -90 6 0 11 -4 10 -8
-3 -12 65 -59 76 -52 6 3 7 1 3 -5 -3 -6 28 -38 71 -72 120 -96 175 -142 205
-173 16 -17 32 -25 39 -21 7 4 9 3 6 -3 -3 -5 38 -52 91 -105 114 -112 228
-232 294 -310 26 -31 55 -55 64 -54 9 0 19 -6 21 -14 4 -13 3 -13 -6 0 -5 8
-13 12 -16 8 -9 -8 176 -239 186 -232 4 2 11 -1 15 -7 4 -8 3 -9 -4 -5 -19 11
-14 0 19 -49 23 -33 34 -43 40 -34 4 7 5 17 2 23 -3 5 -1 6 5 2 9 -5 9 -13 2
-27 -9 -15 -5 -28 19 -62 16 -24 36 -49 45 -56 9 -8 16 -18 16 -23 0 -15 62
-108 72 -108 4 0 7 -3 6 -7 -6 -22 115 -216 127 -206 4 5 5 3 2 -3 -9 -16 82
-196 96 -187 5 3 7 1 4 -4 -7 -12 96 -247 122 -277 9 -11 10 -16 4 -12 -9 5
-11 2 -7 -8 3 -9 9 -14 13 -12 3 2 7 -6 7 -17 1 -12 11 -42 22 -67 11 -25 23
-55 27 -68 4 -12 11 -19 17 -16 7 4 8 2 4 -4 -9 -16 15 -93 27 -85 5 3 6 -3 2
-17 -4 -12 -3 -20 1 -17 5 3 10 -5 11 -16 0 -12 20 -80 42 -152 42 -133 87
-308 116 -450 9 -44 20 -88 26 -98 5 -10 8 -21 5 -26 -3 -4 2 -45 10 -92 47
-264 68 -597 60 -924 -5 -218 -36 -600 -50 -623 -3 -4 -7 -35 -10 -68 -3 -32
-13 -88 -21 -124 -8 -36 -26 -114 -40 -175 -15 -60 -27 -117 -29 -125 -1 -8
-10 -41 -20 -72 -10 -32 -14 -63 -10 -69 4 -7 3 -9 -4 -5 -6 4 -11 -1 -10 -11
0 -10 -21 -80 -46 -155 -26 -76 -44 -143 -40 -150 4 -6 3 -8 -4 -4 -6 3 -13
-4 -17 -16 -7 -24 -59 -158 -75 -193 -5 -11 -11 -27 -12 -35 -2 -8 -7 -18 -11
-21 -5 -4 -10 -18 -10 -32 -1 -14 -5 -23 -10 -20 -4 2 -10 -9 -13 -26 -4 -17
-10 -31 -14 -31 -4 0 -11 -10 -15 -22 -4 -13 -8 -25 -9 -28 -1 -3 -12 -24 -24
-47 -12 -24 -19 -43 -15 -43 5 0 3 -4 -3 -8 -6 -4 -20 -25 -31 -47 -22 -47
-77 -145 -108 -195 -39 -64 -39 -64 -24 -55 15 9 3 -9 -33 -49 -10 -11 -18
-25 -18 -31 0 -7 -11 -25 -25 -41 -14 -16 -23 -35 -20 -42 3 -7 1 -11 -4 -8
-4 3 -18 -13 -30 -34 -12 -22 -29 -47 -38 -55 -13 -13 -13 -18 -1 -33 12 -15
11 -16 -4 -4 -18 14 -34 0 -22 -20 4 -6 3 -8 -3 -5 -6 4 -23 -12 -39 -36 -46
-68 -215 -288 -264 -343 -108 -121 -120 -136 -114 -146 4 -6 2 -8 -3 -5 -12 8
-169 -158 -165 -174 1 -6 -2 -8 -6 -5 -5 3 -40 -24 -78 -59 -111 -105 -134
-126 -224 -203 -54 -47 -84 -80 -82 -90 2 -14 1 -14 -6 -3 -8 11 -22 3 -69
-35 -33 -27 -73 -59 -89 -72 -17 -14 -22 -21 -11 -18 11 4 16 2 12 -5 -4 -6
-13 -8 -21 -5 -8 3 -60 -27 -117 -67 -56 -40 -125 -88 -154 -106 -29 -19 -50
-38 -46 -44 3 -6 1 -7 -5 -3 -13 8 -134 -62 -127 -74 3 -5 0 -12 -6 -16 -8 -4
-9 -3 -5 4 14 24 0 17 -179 -85 -22 -13 -57 -31 -79 -40 -34 -14 -37 -18 -22
-29 15 -11 14 -12 -8 -10 -13 0 -22 4 -20 7 2 3 -34 -12 -80 -35 -47 -22 -82
-44 -80 -48 3 -4 -1 -5 -9 -2 -8 3 -49 -11 -91 -30 -43 -20 -83 -36 -89 -36
-7 0 -6 -5 3 -11 12 -8 11 -9 -6 -4 -30 8 -138 -40 -128 -57 6 -10 4 -11 -7 0
-16 14 -33 16 -24 2 3 -6 -1 -7 -9 -4 -9 3 -16 1 -16 -6 0 -6 -4 -9 -9 -6 -5
4 -45 -7 -88 -23 -71 -27 -290 -96 -338 -106 -123 -27 -127 -29 -109 -37 15
-7 14 -7 -6 -4 -21 5 -190 -24 -232 -39 -22 -8 -154 -31 -233 -41 -221 -27
-289 -35 -409 -44 -131 -10 -568 -13 -721 -4 -146 8 -415 42 -590 75 -66 12
-132 23 -147 23 -16 1 -28 4 -28 9 0 4 -10 7 -22 7 -26 0 -245 56 -353 90 -38
12 -77 23 -85 25 -8 1 -28 7 -44 14 -16 6 -36 13 -45 15 -9 2 -23 6 -31 9 -68
29 -185 65 -194 60 -6 -3 -8 -2 -3 2 9 11 -82 47 -96 38 -6 -3 -7 -2 -4 4 3 5
-17 18 -46 28 -29 10 -62 25 -74 33 -13 8 -30 12 -38 8 -9 -3 -14 -2 -11 3 8
12 -22 23 -37 14 -7 -3 -8 -2 -4 3 9 10 -91 57 -104 48 -5 -3 -8 0 -7 8 2 8
-4 12 -16 10 -10 -2 -15 1 -12 6 3 6 -1 13 -10 16 -10 4 -13 2 -7 -7 4 -6 -4
-4 -17 5 -14 10 -63 39 -110 65 -88 48 -217 126 -329 197 -36 23 -68 40 -73
38 -4 -1 -8 3 -8 9 0 5 -5 7 -10 4 -6 -4 -9 -1 -8 7 2 7 -5 12 -14 12 -10 -1
-15 2 -12 7 3 5 1 9 -5 9 -6 0 -46 27 -90 61 -44 34 -84 58 -89 55 -13 -8 -42
3 -42 16 0 6 7 5 15 -2 9 -7 18 -11 20 -8 3 3 -32 34 -77 69 -46 35 -96 75
-113 90 -16 14 -70 61 -120 105 -49 43 -141 127 -202 188 -62 60 -116 112
-120 115 -5 3 -37 40 -73 81 -35 41 -71 82 -80 90 -8 8 -44 51 -80 95 -35 44
-67 82 -70 85 -3 3 -18 22 -33 43 -16 20 -32 35 -38 32 -5 -4 -6 2 -2 11 5 13
3 15 -7 9 -8 -5 -11 -4 -6 3 3 6 0 16 -7 24 -7 7 -46 61 -87 120 -42 61 -78
105 -84 101 -6 -3 -8 -3 -4 2 10 11 -33 86 -45 78 -6 -3 -7 -1 -3 6 5 7 -3 26
-18 46 -14 18 -26 38 -26 44 0 6 -5 11 -11 11 -6 0 -9 -7 -5 -15 8 -22 -2 -18
-15 6 -8 15 -8 19 0 15 20 -13 11 16 -23 73 -18 31 -43 75 -55 99 -12 23 -26
40 -31 37 -6 -4 -7 1 -3 11 5 13 3 15 -7 9 -8 -5 -11 -4 -6 3 3 6 2 22 -4 36
-7 18 -14 24 -27 20 -13 -4 -14 -3 -5 4 11 7 10 16 -4 45 -10 20 -21 34 -26
31 -4 -3 -5 3 -1 12 5 13 3 15 -7 9 -8 -5 -11 -4 -7 3 10 15 -96 243 -106 229
-4 -7 -5 0 -1 16 3 15 2 27 -4 27 -5 0 -12 12 -15 28 -11 56 -60 172 -70 165
-6 -4 -8 0 -4 11 4 9 -3 40 -14 69 -12 28 -22 57 -24 62 -13 55 -30 105 -36
105 -3 0 -7 10 -7 23 0 12 -14 72 -31 132 -36 127 -83 337 -106 475 -19 110
-45 288 -46 310 0 8 -5 74 -11 145 -13 161 -13 634 0 775 5 58 10 114 10 125
1 11 4 34 6 50 3 17 12 77 20 135 19 127 30 188 62 346 13 67 21 130 18 140
-4 14 -3 16 4 6 7 -10 11 -5 16 22 4 20 4 42 0 49 -4 6 -3 9 1 4 10 -9 67 182
60 201 -3 7 -1 11 4 8 10 -7 32 64 24 77 -3 6 -2 7 4 4 5 -3 15 17 22 46 8 29
19 66 26 82 7 17 19 48 28 70 8 22 25 64 36 93 12 29 19 58 15 64 -4 6 -3 8 3
5 12 -8 76 140 67 155 -4 7 -3 8 4 4 7 -4 13 -1 13 6 2 18 1 20 -7 43 l-7 20
17 -20 c10 -11 15 -15 12 -8 -4 6 -3 13 2 15 4 1 37 62 72 133 36 72 78 151
93 177 16 26 26 52 22 58 -4 6 -1 9 5 8 7 -2 26 22 42 52 17 30 36 62 44 71 8
8 14 23 14 32 0 9 9 21 21 27 13 8 18 17 14 28 -3 9 -3 13 1 9 4 -4 18 9 31
28 25 37 29 50 12 39 -7 -4 -7 2 1 17 18 34 24 38 16 12 -12 -37 1 -27 40 35
21 31 55 78 77 104 21 26 36 52 33 57 -3 5 2 15 12 22 16 13 16 13 2 -6 -14
-19 -14 -19 3 -6 9 8 15 16 12 19 -2 3 12 24 33 46 20 23 55 64 77 91 80 99
192 223 302 334 62 62 110 118 106 124 -4 6 -1 7 6 2 14 -8 73 43 65 57 -3 5
-1 7 4 6 8 -3 48 29 142 112 14 12 24 26 23 31 -2 4 3 6 11 3 8 -3 20 3 27 13
8 10 32 31 54 48 54 40 75 62 67 71 -4 4 -2 4 5 0 17 -9 126 76 110 86 -7 5
-2 7 13 6 16 -2 25 2 25 12 0 8 7 14 16 12 9 -1 24 7 34 18 18 19 17 20 -1 20
-16 0 -16 2 -4 10 9 6 17 5 21 -2 7 -12 23 -3 179 97 47 30 84 60 82 66 -1 6
2 8 7 4 6 -3 45 14 86 39 42 24 72 46 68 48 -4 3 -3 4 4 2 16 -4 322 154 314
162 -3 4 -1 4 6 1 6 -4 38 7 71 23 34 17 63 30 67 30 3 0 24 9 48 19 76 35
191 81 202 81 5 0 21 6 35 13 14 7 53 21 88 31 34 11 62 22 62 26 0 4 6 8 13
7 34 -1 48 4 41 15 -4 7 -3 8 4 4 14 -8 117 20 151 41 13 8 21 11 18 6 -3 -5
81 13 186 39 106 26 205 48 220 48 16 0 26 4 23 9 -3 4 7 8 22 8 15 0 110 12
212 27 102 15 205 29 230 32 25 2 68 5 95 8 28 2 174 7 325 11 151 4 277 9
279 11 1 1 14 -1 28 -7 13 -5 54 -9 91 -9z m-795 3 c-7 -2 -19 -2 -25 0 -7 3
-2 5 12 5 14 0 19 -2 13 -5z m1214 -19 c-3 -3 -12 -4 -19 -1 -8 3 -5 6 6 6 11
1 17 -2 13 -5z m438 -62 c-3 -3 -11 0 -18 7 -9 10 -8 11 6 5 10 -3 15 -9 12
-12z m-2555 -66 c0 -2 -7 -7 -16 -10 -8 -3 -12 -2 -9 4 6 10 25 14 25 6z
m-230 -77 c12 -8 10 -9 -9 -4 -15 5 -21 3 -17 -3 3 -6 1 -14 -5 -18 -8 -4 -9
-3 -5 4 4 7 1 12 -6 12 -9 0 -9 3 2 10 19 12 22 12 40 -1z m3537 -85 c-3 -3
-12 -4 -19 -1 -8 3 -5 6 6 6 11 1 17 -2 13 -5z m-3989 -98 c-2 -1 -10 -7 -19
-14 -13 -10 -19 -10 -27 0 -8 10 -3 13 19 14 16 1 28 1 27 0z m4412 -66 c-8
-5 -19 -10 -25 -10 -5 0 -3 5 5 10 8 5 20 10 25 10 6 0 3 -5 -5 -10z m405
-240 c3 -6 -1 -7 -9 -4 -18 7 -21 14 -7 14 6 0 13 -4 16 -10z m-5795 -230 c-8
-5 -19 -10 -25 -10 -5 0 -3 5 5 10 8 5 20 10 25 10 6 0 3 -5 -5 -10z m6155 -8
c-3 -3 -11 0 -18 7 -9 10 -8 11 6 5 10 -3 15 -9 12 -12z m276 -239 c13 -17 13
-17 -6 -3 -11 8 -22 16 -24 17 -2 2 0 3 6 3 6 0 17 -8 24 -17z m-7311 -583 c0
-5 -5 -10 -11 -10 -5 0 -7 5 -4 10 3 6 8 10 11 10 2 0 4 -4 4 -10z m7930 -22
c0 -6 -6 -5 -15 2 -8 7 -15 14 -15 16 0 2 7 1 15 -2 8 -4 15 -11 15 -16z
m-8016 -64 c5 -14 4 -15 -9 -4 -17 14 -19 20 -6 20 5 0 12 -7 15 -16z m-9 -33
c-6 -5 -25 10 -25 20 0 5 6 4 14 -3 8 -7 12 -15 11 -17z m-63 -73 c-7 -7 -12
-8 -12 -2 0 14 12 26 19 19 2 -3 -1 -11 -7 -17z m-86 -116 c-17 -16 -18 -16
-5 5 7 12 15 20 18 17 3 -2 -3 -12 -13 -22z m-58 -92 c-7 -10 -14 -17 -17 -15
-4 4 18 35 25 35 2 0 -1 -9 -8 -20z m-120 -145 c-3 -3 -9 2 -12 12 -6 14 -5
15 5 6 7 -7 10 -15 7 -18z m8762 -41 c0 -3 -7 -1 -15 6 -8 7 -15 17 -15 22 0
5 7 3 15 -6 8 -8 15 -18 15 -22z m88 -139 c-3 -3 -9 2 -12 12 -6 14 -5 15 5 6
7 -7 10 -15 7 -18z m-8974 -51 c3 -8 2 -12 -4 -9 -6 3 -10 10 -10 16 0 14 7
11 14 -7z m-111 -159 c-3 -9 -8 -14 -10 -11 -3 3 -2 9 2 15 9 16 15 13 8 -4z
m1 -51 c3 -8 2 -12 -4 -9 -6 3 -10 10 -10 16 0 14 7 11 14 -7z m9473 -516 c-3
-8 -6 -5 -6 6 -1 11 2 17 5 13 3 -3 4 -12 1 -19z m160 -525 c-3 -10 -5 -4 -5
12 0 17 2 24 5 18 2 -7 2 -21 0 -30z m0 -85 c-3 -8 -6 -5 -6 6 -1 11 2 17 5
13 3 -3 4 -12 1 -19z m-10090 -150 c-3 -8 -6 -5 -6 6 -1 11 2 17 5 13 3 -3 4
-12 1 -19z m-20 -10 c-3 -8 -6 -5 -6 6 -1 11 2 17 5 13 3 -3 4 -12 1 -19z
m10193 -1923 c0 -5 -5 -3 -10 5 -5 8 -10 20 -10 25 0 6 5 3 10 -5 5 -8 10 -19
10 -25z m-10176 -80 c5 -22 4 -26 -4 -15 -5 8 -10 24 -10 34 0 26 6 18 14 -19z
m-17 -57 c-3 -8 -6 -5 -6 6 -1 11 2 17 5 13 3 -3 4 -12 1 -19z m63 -168 c0 -5
-5 -10 -11 -10 -5 0 -7 5 -4 10 3 6 8 10 11 10 2 0 4 -4 4 -10z m10057 -62
c-3 -8 -6 -5 -6 6 -1 11 2 17 5 13 3 -3 4 -12 1 -19z m-9947 -288 c0 -5 -2
-10 -4 -10 -3 0 -8 5 -11 10 -3 6 -1 10 4 10 6 0 11 -4 11 -10z m9473 -855
c-3 -9 -8 -14 -10 -11 -3 3 -2 9 2 15 9 16 15 13 8 -4z m-9045 -90 c-3 -3 -9
2 -12 12 -6 14 -5 15 5 6 7 -7 10 -15 7 -18z m8879 -197 c-3 -8 -6 -5 -6 6 -1
11 2 17 5 13 3 -3 4 -12 1 -19z m-8776 -41 c-10 -9 -11 -8 -5 6 3 10 9 15 12
12 3 -3 0 -11 -7 -18z m92 -50 c3 -8 -1 -14 -8 -14 -7 0 -11 6 -8 14 3 7 6 13
8 13 2 0 5 -6 8 -13z m8607 -27 c0 -5 -5 -10 -11 -10 -5 0 -7 5 -4 10 3 6 8
10 11 10 2 0 4 -4 4 -10z m-75 -90 c3 -6 -1 -7 -9 -4 -18 7 -21 14 -7 14 6 0
13 -4 16 -10z m-8 -62 c-3 -7 -5 -2 -5 12 0 14 2 19 5 13 2 -7 2 -19 0 -25z
m-8347 -73 c7 -9 8 -15 2 -15 -5 0 -12 7 -16 15 -3 8 -4 15 -2 15 2 0 9 -7 16
-15z m8190 -59 c0 -2 -8 -10 -17 -17 -16 -13 -17 -12 -4 4 13 16 21 21 21 13z
m-8137 -36 c-3 -12 -8 -19 -11 -16 -5 6 5 36 12 36 2 0 2 -9 -1 -20z m8047
-75 c11 -13 10 -14 -4 -9 -9 3 -16 10 -16 15 0 13 6 11 20 -6z m-7876 -130
c-4 -15 -2 -25 5 -25 6 0 11 -5 11 -11 0 -8 -5 -8 -15 1 -17 14 -21 60 -5 60
6 0 8 -11 4 -25z m166 -140 c0 -1 -6 -7 -13 -13 -10 -8 -13 -6 -13 7 0 11 6
17 13 14 7 -3 13 -6 13 -8z m7 -29 c-3 -8 -1 -17 6 -20 9 -3 9 -5 0 -5 -15 -1
-26 16 -18 29 9 15 18 12 12 -4z m73 -51 c0 -1 -6 -7 -13 -13 -10 -8 -13 -6
-13 7 0 11 6 17 13 14 7 -3 13 -6 13 -8z m90 -115 c-13 -9 -13 -11 0 -20 8 -5
10 -10 4 -10 -15 0 -36 25 -27 33 3 4 13 7 22 7 14 0 14 -2 1 -10z m6920 -144
c0 -2 -8 -10 -17 -17 -16 -13 -17 -12 -4 4 13 16 21 21 21 13z m-6705 -25 c3
-5 2 -12 -3 -15 -5 -3 -9 1 -9 9 0 17 3 19 12 6z m300 -251 c3 -6 -1 -7 -9 -4
-18 7 -21 14 -7 14 6 0 13 -4 16 -10z m5980 -80 c-3 -5 -12 -10 -18 -10 -7 0
-6 4 3 10 19 12 23 12 15 0z m-5632 -151 c5 -3 2 -9 -5 -12 -9 -3 -14 3 -15
15 -1 11 1 16 5 12 4 -5 11 -12 15 -15z m5412 -9 c-3 -5 -12 -10 -18 -10 -7 0
-6 4 3 10 19 12 23 12 15 0z m-175 -54 c0 -2 -7 -7 -16 -10 -8 -3 -12 -2 -9 4
6 10 25 14 25 6z m-223 -158 c-3 -8 -6 -5 -6 6 -1 11 2 17 5 13 3 -3 4 -12 1
-19z m-4567 2 c8 -5 12 -11 10 -14 -3 -2 -14 2 -24 10 -22 15 -10 19 14 4z
m140 -106 c0 -2 -7 -4 -15 -4 -8 0 -15 4 -15 10 0 5 7 7 15 4 8 -4 15 -8 15
-10z m240 -64 c-8 -5 -22 -9 -30 -9 -10 0 -8 3 5 9 27 12 43 12 25 0z m27 -16
c-3 -3 -12 -4 -19 -1 -8 3 -5 6 6 6 11 1 17 -2 13 -5z m3273 -124 c-8 -5 -22
-9 -30 -9 -10 0 -8 3 5 9 27 12 43 12 25 0z m-413 -96 c-3 -3 -12 -4 -19 -1
-8 3 -5 6 6 6 11 1 17 -2 13 -5z m-2084 -11 c-7 -2 -19 -2 -25 0 -7 3 -2 5 12
5 14 0 19 -2 13 -5z m54 1 c-3 -3 -12 -4 -19 -1 -8 3 -5 6 6 6 11 1 17 -2 13
-5z m2070 0 c-3 -3 -12 -4 -19 -1 -8 3 -5 6 6 6 11 1 17 -2 13 -5z m-714 -81
c-7 -2 -19 -2 -25 0 -7 3 -2 5 12 5 14 0 19 -2 13 -5z m4317 -1037 c0 -525 2
-585 16 -597 19 -15 94 -129 94 -142 0 -4 5 -5 12 -1 6 4 8 3 4 -4 -3 -6 1
-37 10 -69 23 -83 19 -246 -8 -348 -11 -44 -25 -85 -30 -92 -5 -7 -7 -16 -4
-22 3 -5 3 -11 -1 -13 -14 -6 -44 -68 -38 -77 3 -5 0 -13 -6 -17 -8 -5 -9 -3
-4 6 5 8 3 11 -6 8 -8 -3 -13 -11 -11 -17 1 -6 -3 -11 -8 -11 -6 0 -54 -40
-108 -88 -94 -85 -207 -162 -239 -162 -8 0 -29 -6 -46 -14 -18 -8 -52 -19 -77
-24 -52 -12 -286 -17 -312 -7 -10 4 -25 5 -33 1 -8 -3 -15 -1 -15 5 0 7 -10 9
-27 4 -16 -4 -25 -4 -21 0 3 4 -19 20 -50 37 -67 35 -144 114 -174 180 -12 26
-25 45 -31 41 -5 -3 -6 4 -2 17 4 12 3 20 -1 17 -5 -3 -9 7 -10 21 0 15 -6 60
-13 101 -22 144 11 328 87 475 22 43 38 86 35 95 -3 11 -2 12 4 4 7 -9 21 2
54 40 24 30 65 71 91 92 26 21 45 42 41 48 -3 6 -1 7 5 3 12 -7 74 21 80 37 2
4 7 5 12 2 5 -3 32 4 61 15 76 30 241 47 331 33 40 -6 81 -14 90 -18 17 -7 18
22 17 506 0 511 0 514 21 519 11 3 63 4 115 2 l95 -3 0 -583z m-10465 525 c7
-1 9 -235 8 -686 -3 -669 -2 -685 16 -673 11 6 30 34 43 62 32 71 32 70 18 61
-9 -5 -11 -4 -6 4 4 6 11 9 15 6 13 -7 73 64 65 77 -4 7 -3 8 4 4 15 -9 55 18
44 29 -4 5 -1 5 6 1 8 -5 21 -2 30 7 18 15 82 39 147 54 22 5 83 6 135 2 52
-4 101 -4 109 -1 10 4 12 1 6 -8 -6 -10 -4 -12 8 -7 10 3 17 2 17 -3 0 -5 11
-12 25 -16 13 -3 29 -12 36 -20 7 -8 21 -12 33 -9 12 3 15 2 9 -1 -9 -4 -1
-20 24 -49 20 -24 41 -41 46 -38 6 4 7 1 3 -6 -5 -7 -1 -20 7 -29 8 -9 18 -28
22 -41 6 -18 9 -20 16 -10 7 12 9 11 10 -1 4 -36 9 -73 29 -190 16 -100 20
-169 20 -345 0 -121 -1 -233 -3 -250 -2 -16 -5 -48 -6 -70 -2 -63 -5 -65 -101
-54 -127 14 -134 17 -118 36 10 13 13 83 13 332 0 306 -1 318 -23 372 -28 71
-70 128 -118 165 -51 39 -135 39 -211 1 -53 -27 -153 -116 -153 -135 0 -6 -15
-28 -34 -48 -19 -21 -42 -58 -52 -83 -9 -26 -21 -51 -26 -58 -5 -7 -6 -18 -2
-24 5 -8 3 -9 -6 -4 -10 6 -12 3 -8 -13 4 -14 2 -20 -4 -16 -6 4 -8 -2 -3 -16
4 -14 3 -20 -3 -17 -18 12 -69 -213 -78 -348 -4 -55 -11 -108 -16 -117 -7 -15
-23 -18 -103 -18 l-95 0 -1 1063 c-2 1049 -2 1117 0 1127 1 4 157 4 206 1z
m4980 -154 c29 -29 65 -73 81 -98 16 -24 31 -46 35 -49 3 -3 8 -13 12 -23 4
-10 11 -15 17 -12 6 3 7 -1 4 -10 -7 -18 14 -47 29 -38 5 3 7 1 4 -5 -4 -5 24
-72 62 -149 99 -198 153 -323 232 -533 17 -47 35 -89 39 -95 4 -5 13 -34 20
-64 12 -49 14 -53 26 -36 8 10 14 14 14 9 0 -6 -5 -15 -11 -21 -9 -9 -6 -33
11 -95 32 -118 25 -233 -19 -322 -17 -35 -46 -75 -64 -89 -39 -29 -124 -66
-222 -96 -66 -20 -282 -104 -315 -122 -15 -9 -124 -51 -300 -116 -52 -20 -108
-41 -125 -48 -16 -7 -55 -23 -85 -36 -30 -12 -60 -26 -66 -31 -7 -5 -57 -31
-113 -59 -56 -27 -99 -54 -96 -59 3 -6 -1 -7 -10 -4 -8 4 -21 2 -28 -4 -27
-22 -273 -140 -382 -184 -226 -91 -400 -122 -532 -94 -136 28 -198 88 -343
333 -39 65 -61 93 -74 93 -11 0 -17 3 -13 6 3 3 57 6 119 5 63 0 119 4 126 8
9 5 12 119 14 455 l3 448 132 -1 c155 -2 141 -18 145 154 l3 110 -150 2 -150
2 1 43 c4 137 3 134 27 146 26 13 120 55 127 57 16 4 422 195 525 247 33 16
134 63 225 105 156 70 183 82 263 117 17 8 64 27 102 41 39 15 97 37 130 50
33 12 78 28 100 35 22 6 63 18 90 27 96 29 211 51 269 52 59 1 60 1 111 -52z
m6202 -43 c-3 -3 -12 -4 -19 -1 -8 3 -5 6 6 6 11 1 17 -2 13 -5z m85 -33 c74
-25 103 -45 137 -95 37 -54 50 -98 56 -179 4 -57 1 -72 -22 -114 -15 -26 -54
-74 -86 -107 -45 -44 -54 -57 -36 -52 20 6 21 5 6 -4 -9 -6 -21 -9 -26 -5 -13
7 -82 -40 -73 -50 4 -5 1 -5 -5 -1 -17 10 -40 -4 -24 -14 6 -3 -3 -7 -21 -7
-18 0 -54 -2 -79 -3 -65 -2 -125 16 -161 50 -17 16 -35 27 -41 23 -5 -3 -7 -1
-4 4 4 6 -2 18 -13 28 -11 10 -24 33 -30 51 -7 19 -15 32 -19 29 -13 -7 -7
200 5 216 6 8 18 28 27 45 22 42 114 132 161 156 102 52 158 59 248 29z m-322
-51 c0 -5 -2 -10 -4 -10 -3 0 -8 5 -11 10 -3 6 -1 10 4 10 6 0 11 -4 11 -10z
m-4455 -80 c3 -5 1 -10 -4 -10 -6 0 -11 5 -11 10 0 6 2 10 4 10 3 0 8 -4 11
-10z m54 -72 c24 -15 48 -25 52 -22 5 3 6 -2 3 -11 -6 -14 -91 -80 -145 -111
-10 -6 -35 -25 -56 -42 -21 -17 -56 -46 -78 -63 -69 -53 -195 -179 -195 -194
0 -4 -9 -18 -19 -31 -11 -14 -17 -33 -14 -47 3 -14 2 -18 -4 -10 -16 23 -45
-80 -44 -154 2 -76 23 -168 36 -156 4 4 5 2 1 -5 -9 -15 94 -283 105 -276 4 2
5 -6 1 -18 -4 -16 -2 -19 8 -13 8 5 11 4 7 -2 -4 -6 2 -33 14 -59 31 -73 34
-83 62 -159 15 -38 34 -96 44 -127 9 -31 20 -55 24 -52 4 2 7 -6 6 -19 0 -12
14 -77 32 -144 44 -172 39 -325 -15 -441 -8 -18 -12 -37 -8 -44 4 -7 3 -8 -4
-4 -6 3 -16 -3 -22 -15 -28 -51 -105 -142 -142 -166 -29 -20 -36 -29 -26 -36
9 -6 8 -7 -4 -3 -10 3 -39 -4 -65 -15 -41 -18 -70 -21 -196 -23 l-149 -1 -24
28 c-26 30 -30 67 -14 126 5 20 12 53 15 75 5 32 8 36 18 22 7 -8 26 -18 42
-21 66 -15 139 -24 147 -19 5 3 21 7 36 9 33 4 82 22 82 30 0 4 -5 3 -12 -1
-7 -4 -8 -3 -4 4 4 6 12 9 19 6 25 -9 109 100 121 158 3 13 10 41 15 63 12 46
14 148 4 159 -4 4 -8 22 -9 40 -1 53 -66 249 -77 234 -6 -9 -7 -8 -3 5 3 10
-13 60 -37 115 -24 53 -49 112 -56 129 -8 18 -18 30 -23 27 -6 -4 -7 2 -3 16
5 17 4 21 -5 15 -9 -5 -11 -4 -6 3 4 6 -1 26 -11 44 -9 18 -18 38 -20 43 -11
38 -71 203 -77 213 -4 7 -9 29 -11 50 -2 20 -8 64 -14 97 -22 122 -3 267 44
339 10 14 13 26 9 26 -5 0 -1 5 9 11 9 6 15 14 12 20 -4 5 -1 9 5 9 6 0 8 5 5
10 -4 6 -10 8 -15 5 -5 -3 -11 -1 -15 4 -3 6 5 8 17 6 18 -3 34 10 73 57 44
53 122 127 265 251 24 20 45 37 48 37 15 0 61 43 56 52 -4 7 -2 8 5 4 6 -4 23
2 37 13 l27 21 36 -22 c20 -12 56 -35 80 -50z m-3579 -53 c13 0 15 -39 18
-282 l2 -283 148 0 147 0 -5 -106 -5 -106 -135 -1 -135 -2 -2 -450 -2 -450
-111 0 -110 0 -1 437 c0 241 -4 440 -8 443 -5 3 -10 -59 -10 -137 -2 -228 -12
-633 -17 -637 -4 -5 -104 205 -104 220 0 5 -4 8 -9 4 -5 -3 -13 0 -17 6 -4 8
-3 9 4 5 16 -9 16 -12 -17 82 -15 45 -32 78 -36 74 -5 -4 -5 -2 -1 5 5 10 -5
43 -39 128 -4 11 -9 25 -10 31 -2 6 -17 52 -34 102 -17 51 -31 96 -31 102 0 6
57 11 153 12 l152 2 -122 5 c-67 3 -126 11 -132 16 -11 12 -18 201 -8 212 5 4
27 6 50 5 23 -1 36 1 29 4 -21 10 50 68 100 83 24 7 48 17 54 22 25 20 44 -2
44 -51 0 -27 -5 -51 -10 -53 -6 -3 -5 -4 2 -3 10 2 13 63 13 279 l0 277 83 0
c59 0 82 4 82 13 0 7 3 8 8 2 4 -5 14 -10 22 -10z m4193 -275 l2 -285 134 -5
134 -5 4 -74 c3 -41 2 -88 -1 -105 l-6 -31 -132 0 -133 0 -2 -450 -2 -450
-106 -3 -105 -3 0 28 c0 15 -3 102 -6 193 -3 91 -7 278 -7 415 l-2 250 -130 6
c-71 3 -137 8 -145 12 -13 6 -16 28 -15 112 l0 104 145 3 145 3 2 274 c1 150
4 276 7 279 3 2 38 7 78 9 40 3 75 7 78 9 2 3 17 4 33 2 l29 -3 1 -285z
m-3599 201 c4 -5 -3 -7 -14 -4 -23 6 -26 13 -6 13 8 0 17 -4 20 -9z m-5154
-15 c0 -3 -4 -8 -10 -11 -5 -3 -10 -1 -10 4 0 6 5 11 10 11 6 0 10 -2 10 -4z
m260 -29 l25 -4 -27 -2 -27 -1 2 -172 c2 -168 3 -173 22 -168 11 3 97 5 190 4
163 0 172 -1 229 -27 33 -15 79 -43 103 -63 25 -21 48 -32 55 -28 7 4 10 4 6
-1 -4 -4 6 -23 22 -41 16 -18 41 -55 56 -81 16 -26 32 -50 36 -51 5 -2 5 -8 2
-13 -3 -6 5 -27 19 -47 14 -20 30 -59 36 -87 11 -50 8 -291 -3 -302 -3 -4 -6
-16 -6 -28 0 -21 -80 -189 -112 -234 -9 -13 -14 -29 -11 -34 4 -6 1 -7 -6 -2
-15 9 -75 -51 -66 -66 4 -5 -2 -9 -12 -9 -11 0 -34 -11 -52 -24 -18 -13 -46
-30 -62 -37 -23 -9 -27 -14 -17 -21 10 -7 8 -8 -5 -4 -9 3 -41 -4 -70 -15 -59
-24 -69 -26 -152 -38 -59 -8 -147 -6 -173 4 -10 4 -12 -93 -12 -483 l1 -487
-110 0 -110 0 -4 1015 c-2 558 -7 1089 -10 1180 -4 91 -8 212 -10 269 l-2 105
108 -2 c78 -1 107 2 107 11 0 9 2 9 8 1 4 -7 18 -14 32 -17z m7 17 c-3 -3 -12
-4 -19 -1 -8 3 -5 6 6 6 11 1 17 -2 13 -5z m7838 -4 c-3 -5 -11 -10 -16 -10
-6 0 -7 5 -4 10 3 6 11 10 16 10 6 0 7 -4 4 -10z m4284 -85 c0 -5 -4 -3 -9 5
-5 8 -9 22 -9 30 0 16 17 -16 18 -35z m601 -45 c0 -5 -5 -10 -11 -10 -5 0 -7
5 -4 10 3 6 8 10 11 10 2 0 4 -4 4 -10z m-5119 -23 c-10 -9 -11 -8 -5 6 3 10
9 15 12 12 3 -3 0 -11 -7 -18z m5119 -27 c0 -5 -4 -10 -10 -10 -5 0 -10 5 -10
10 0 6 5 10 10 10 6 0 10 -4 10 -10z m-520 -4 c0 -3 -4 -8 -10 -11 -5 -3 -10
-1 -10 4 0 6 5 11 10 11 6 0 10 -2 10 -4z m-1989 -108 c1 -22 0 -78 -7 -298
-4 -118 -9 -413 -11 -655 l-3 -440 -105 -3 -105 -3 0 121 0 121 -29 -17 c-17
-10 -27 -22 -24 -28 3 -6 2 -8 -2 -3 -5 4 -22 -6 -39 -21 -17 -16 -78 -48
-135 -72 -101 -42 -106 -43 -210 -42 -58 1 -121 6 -139 11 -48 14 -161 102
-204 158 -42 55 -88 139 -88 160 0 8 -4 12 -9 9 -5 -4 -7 4 -3 16 3 11 1 19
-4 16 -10 -6 -12 14 -11 102 0 121 2 158 8 148 4 -6 10 34 14 88 11 158 14
192 27 324 l13 125 37 0 c20 0 34 -3 32 -6 -2 -4 18 -10 44 -13 26 -4 60 -9
75 -12 l28 -6 -6 -66 c-3 -37 -8 -78 -10 -92 -27 -179 -45 -351 -44 -419 2
-88 19 -167 34 -154 4 4 5 2 1 -4 -9 -17 8 -47 57 -100 52 -57 92 -73 181 -73
64 0 77 4 131 36 86 52 197 162 189 188 -3 14 -2 17 4 8 17 -25 50 33 73 128
9 39 13 146 13 377 1 177 -2 315 -6 305 -4 -9 -7 -11 -7 -4 -1 7 3 20 8 30 6
9 12 29 16 45 l5 27 105 0 c77 0 105 -3 106 -12z m3232 -35 c-7 -2 -21 -2 -30
0 -10 3 -4 5 12 5 17 0 24 -2 18 -5z m-3198 -13 c3 -5 1 -10 -4 -10 -6 0 -11
5 -11 10 0 6 2 10 4 10 3 0 8 -4 11 -10z m-3098 -32 c-3 -7 -5 -2 -5 12 0 14
2 19 5 13 2 -7 2 -19 0 -25z m6468 18 c17 -4 49 -15 72 -23 23 -8 47 -12 54
-8 7 5 10 4 6 -2 -4 -5 6 -16 21 -24 15 -7 38 -21 51 -31 13 -10 28 -15 35
-11 6 3 8 3 4 -2 -9 -9 9 -35 24 -35 5 0 6 6 2 13 -4 7 -3 9 2 4 5 -5 9 -12 9
-16 0 -5 20 -32 45 -61 74 -87 118 -167 152 -275 18 -55 23 -97 24 -200 1 -82
5 -129 12 -128 6 1 7 -7 4 -19 -5 -21 -6 -21 -12 -3 -7 19 -7 19 -19 -2 -6
-12 -14 -43 -18 -68 -3 -26 -9 -42 -13 -36 -3 6 -14 -4 -23 -25 -10 -19 -36
-60 -59 -91 -39 -53 -40 -57 -23 -70 11 -7 14 -13 9 -13 -6 0 -15 5 -22 12 -9
9 -17 6 -37 -12 -28 -26 -26 -41 2 -19 15 11 15 10 -1 -9 -14 -16 -22 -19 -27
-10 -6 9 -13 8 -28 -6 -11 -10 -18 -23 -15 -27 3 -5 -1 -7 -8 -4 -18 7 -104
-51 -86 -59 7 -3 4 -4 -8 -1 -11 3 -36 -1 -55 -8 -67 -27 -74 -30 -89 -35 -8
-3 -67 -5 -130 -5 -102 0 -123 3 -184 27 -105 41 -153 73 -241 160 -44 43 -84
78 -88 77 -5 -1 -6 3 -2 9 3 5 -2 22 -13 38 -25 36 -67 128 -83 183 -29 103
-13 289 35 402 9 21 14 43 10 49 -4 7 -3 8 4 4 7 -4 17 4 24 21 32 72 143 200
219 250 30 19 37 29 27 35 -9 6 -6 7 8 3 12 -3 45 6 78 21 32 15 81 29 110 33
68 8 203 6 241 -3z m-405 -10 c0 -2 -7 -7 -16 -10 -8 -3 -12 -2 -9 4 6 10 25
14 25 6z m-2983 -98 c-3 -8 -6 -5 -6 6 -1 11 2 17 5 13 3 -3 4 -12 1 -19z
m688 4 c-3 -3 -11 0 -18 7 -9 10 -8 11 6 5 10 -3 15 -9 12 -12z m3011 -4 c0
-12 -4 -14 -18 -7 -26 14 -28 24 -4 24 14 0 22 -6 22 -17z m-1351 -56 c7 -4
11 -83 10 -217 0 -115 3 -259 7 -320 4 -60 10 -162 14 -225 3 -63 9 -162 14
-220 4 -58 6 -107 4 -109 -2 -2 -27 -5 -56 -8 -29 -2 -79 -8 -110 -12 -40 -5
-58 -4 -59 3 -1 6 -1 40 0 74 1 37 -2 61 -7 58 -6 -3 -8 12 -5 37 3 23 0 152
-5 287 -5 135 -7 336 -5 447 5 175 8 203 22 206 28 8 166 7 176 -1z m-11879
-119 c-3 -4 -6 -1 -6 6 0 7 -4 9 -10 6 -6 -4 -7 1 -3 11 6 15 7 15 15 -1 6 -9
7 -19 4 -22z m2534 10 c73 -26 146 -85 220 -179 57 -72 88 -241 61 -331 -5
-18 -7 -33 -3 -33 4 0 0 -5 -8 -10 -12 -8 -11 -14 9 -42 l24 -33 -25 23 -25
22 -10 -22 c-33 -74 -191 -198 -271 -214 -17 -4 -30 -10 -27 -14 3 -4 -39 -7
-93 -6 -172 3 -308 69 -383 187 -38 59 -71 174 -71 245 0 73 30 165 74 226 10
16 16 33 13 38 -4 6 -1 9 7 8 7 -2 12 4 10 12 -2 8 0 12 4 8 3 -4 27 11 53 33
73 65 140 91 251 99 106 7 126 5 190 -17z m7518 2 c-3 -3 -9 2 -12 12 -6 14
-5 15 5 6 7 -7 10 -15 7 -18z m-8511 -17 c-3 -8 -6 -5 -6 6 -1 11 2 17 5 13 3
-3 4 -12 1 -19z m6563 7 c-7 -8 -17 -12 -22 -9 -6 4 -5 10 3 15 22 14 33 10
19 -6z m3111 -12 c-12 -20 -14 -14 -5 12 4 9 9 14 11 11 3 -2 0 -13 -6 -23z
m986 -35 c-3 -8 -6 -5 -6 6 -1 11 2 17 5 13 3 -3 4 -12 1 -19z m-11301 -136
c0 -10 -8 -18 -18 -18 -16 0 -16 2 -1 18 9 10 17 18 17 18 1 0 2 -8 2 -18z
m11261 -4 c-3 -8 -6 -5 -6 6 -1 11 2 17 5 13 3 -3 4 -12 1 -19z m-2200 -30
c-3 -8 -6 -5 -6 6 -1 11 2 17 5 13 3 -3 4 -12 1 -19z m-9890 -50 c-2 -13 -4
-3 -4 22 0 25 2 35 4 23 2 -13 2 -33 0 -45z m8310 40 c-3 -8 -6 -5 -6 6 -1 11
2 17 5 13 3 -3 4 -12 1 -19z m270 -50 c-3 -8 -6 -5 -6 6 -1 11 2 17 5 13 3 -3
4 -12 1 -19z m-2113 -4 c3 -8 2 -12 -4 -9 -6 3 -10 10 -10 16 0 14 7 11 14 -7z
m-7517 -56 c-2 -13 -4 -5 -4 17 -1 22 1 32 4 23 2 -10 2 -28 0 -40z m13110 30
c-3 -8 -6 -5 -6 6 -1 11 2 17 5 13 3 -3 4 -12 1 -19z m-3480 -40 c-3 -8 -6 -5
-6 6 -1 11 2 17 5 13 3 -3 4 -12 1 -19z m-7847 1 c0 -15 -18 -19 -23 -6 -3 8
1 14 9 14 8 0 14 -4 14 -8z m787 -11 c-3 -8 -6 -5 -6 6 -1 11 2 17 5 13 3 -3
4 -12 1 -19z m5280 -80 c-3 -8 -6 -5 -6 6 -1 11 2 17 5 13 3 -3 4 -12 1 -19z
m6594 -99 c-5 -13 -10 -19 -10 -12 -1 15 10 45 15 40 3 -2 0 -15 -5 -28z
m-5104 -21 c-3 -7 -5 -2 -5 12 0 14 2 19 5 13 2 -7 2 -19 0 -25z m-1720 0 c-3
-8 -6 -5 -6 6 -1 11 2 17 5 13 3 -3 4 -12 1 -19z m2027 -44 c3 -8 2 -12 -4 -9
-6 3 -10 10 -10 16 0 14 7 11 14 -7z m-1677 -41 c-3 -10 -5 -4 -5 12 0 17 2
24 5 18 2 -7 2 -21 0 -30z m-20 -5 c-3 -8 -6 -5 -6 6 -1 11 2 17 5 13 3 -3 4
-12 1 -19z m2143 7 c-7 -9 -15 -13 -17 -11 -7 7 7 26 19 26 6 0 6 -6 -2 -15z
m-7120 -15 c0 -5 -2 -10 -4 -10 -3 0 -8 5 -11 10 -3 6 -1 10 4 10 6 0 11 -4
11 -10z m4980 -45 c0 -5 -5 -3 -10 5 -5 8 -10 20 -10 25 0 6 5 3 10 -5 5 -8
10 -19 10 -25z m5232 3 c-7 -7 -12 -8 -12 -2 0 14 12 26 19 19 2 -3 -1 -11 -7
-17z m-265 -10 c-3 -8 -6 -5 -6 6 -1 11 2 17 5 13 3 -3 4 -12 1 -19z m1448 11
c11 -16 1 -19 -13 -3 -7 8 -8 14 -3 14 5 0 13 -5 16 -11z m-14368 -111 c-2
-24 -4 -7 -4 37 0 44 2 63 4 43 2 -21 2 -57 0 -80z m9728 83 c-3 -6 -11 -11
-16 -11 -5 0 -4 6 3 14 14 16 24 13 13 -3z m270 -1 c-3 -5 -12 -10 -18 -10 -7
0 -6 4 3 10 19 12 23 12 15 0z m-3310 -20 c-3 -5 -12 -10 -18 -10 -7 0 -6 4 3
10 19 12 23 12 15 0z m40 0 c3 -5 2 -10 -4 -10 -5 0 -13 5 -16 10 -3 6 -2 10
4 10 5 0 13 -4 16 -10z m2673 -46 c-4 -3 -12 5 -18 18 -12 22 -12 22 6 6 10
-10 15 -20 12 -24z m-7081 -16 c-3 -8 -6 -5 -6 6 -1 11 2 17 5 13 3 -3 4 -12
1 -19z m270 -30 c-3 -7 -5 -2 -5 12 0 14 2 19 5 13 2 -7 2 -19 0 -25z m598 14
c-3 -3 -11 0 -18 7 -9 10 -8 11 6 5 10 -3 15 -9 12 -12z m7762 -4 c-3 -8 -6
-5 -6 6 -1 11 2 17 5 13 3 -3 4 -12 1 -19z m-9298 -38 c0 -9 -4 -8 -9 5 -5 11
-9 27 -9 35 0 9 4 8 9 -5 5 -11 9 -27 9 -35z m10391 30 c0 -5 -2 -10 -4 -10
-3 0 -8 5 -11 10 -3 6 -1 10 4 10 6 0 11 -4 11 -10z m-4010 -31 c0 -11 -4 -17
-10 -14 -5 3 -10 13 -10 21 0 8 5 14 10 14 6 0 10 -9 10 -21z m3012 -31 c-7
-7 -12 -8 -12 -2 0 14 12 26 19 19 2 -3 -1 -11 -7 -17z m3163 -7 c-3 -6 -11
-11 -16 -11 -5 0 -4 6 3 14 14 16 24 13 13 -3z m-860 -11 c3 -5 1 -10 -4 -10
-6 0 -11 5 -11 10 0 6 2 10 4 10 3 0 8 -4 11 -10z m-11695 -43 c0 -4 -6 -2
-14 5 -8 7 -12 17 -9 22 5 8 23 -12 23 -27z m6898 -12 c-3 -3 -9 2 -12 12 -6
14 -5 15 5 6 7 -7 10 -15 7 -18z m1062 6 c0 -4 -8 -7 -19 -7 -11 0 -17 6 -14
13 5 12 33 7 33 -6z m-1837 -21 c-3 -12 -8 -19 -11 -16 -5 6 5 36 12 36 2 0 2
-9 -1 -20z m2304 14 c-3 -3 -12 -4 -19 -1 -8 3 -5 6 6 6 11 1 17 -2 13 -5z
m-8482 -24 c3 -5 1 -10 -4 -10 -6 0 -11 5 -11 10 0 6 2 10 4 10 3 0 8 -4 11
-10z m8643 -25 c-3 -3 -9 2 -12 12 -6 14 -5 15 5 6 7 -7 10 -15 7 -18z
m-10251 -107 c-2 -24 -4 -7 -4 37 0 44 2 63 4 43 2 -21 2 -57 0 -80z m13636
65 c-7 -2 -19 -2 -25 0 -7 3 -2 5 12 5 14 0 19 -2 13 -5z m-8163 -253 c-8 -5
-19 -10 -25 -10 -5 0 -3 5 5 10 8 5 20 10 25 10 6 0 3 -5 -5 -10z m2547 -42
c-3 -7 -5 -2 -5 12 0 14 2 19 5 13 2 -7 2 -19 0 -25z m-327 12 c0 -5 -5 -10
-11 -10 -5 0 -7 5 -4 10 3 6 8 10 11 10 2 0 4 -4 4 -10z m6998 -225 c7 -2 12
-22 12 -49 l0 -44 -92 -7 c-139 -9 -6490 -1 -6510 9 -13 6 -18 20 -18 51 l0
44 43 3 c69 5 6551 -2 6565 -7z m-7734 -26 c3 -17 6 -42 6 -55 l0 -24 -3291 0
c-2249 0 -3296 3 -3310 10 -14 8 -19 21 -19 55 l0 45 3304 0 3304 0 6 -31z
m1146 -73 c0 -3 -4 -8 -10 -11 -5 -3 -10 -1 -10 4 0 6 5 11 10 11 6 0 10 -2
10 -4z m6540 -26 c0 -5 -5 -10 -11 -10 -5 0 -7 5 -4 10 3 6 8 10 11 10 2 0 4
-4 4 -10z m-6537 -7 c-7 -2 -21 -2 -30 0 -10 3 -4 5 12 5 17 0 24 -2 18 -5z
m-696 -69 c-3 -3 -12 -4 -19 -1 -8 3 -5 6 6 6 11 1 17 -2 13 -5z m-7379 -169
c0 -14 -4 -25 -9 -25 -10 0 -12 34 -2 43 10 10 11 9 11 -18z"/>
<path d="M11410 14634 c-219 -132 -202 -121 -279 -170 -37 -22 -202 -122 -368
-222 -167 -100 -356 -215 -422 -257 -107 -66 -166 -101 -346 -200 -98 -54
-164 -97 -169 -111 -7 -17 1 -23 309 -209 143 -87 330 -201 415 -253 148 -91
516 -312 590 -355 19 -10 118 -70 220 -132 102 -62 241 -146 310 -187 69 -42
154 -93 190 -115 226 -139 535 -328 650 -398 182 -111 465 -284 630 -385 350
-214 529 -322 850 -512 376 -222 422 -249 430 -246 9 4 -100 443 -158 643
-166 565 -342 974 -590 1369 -64 104 -191 286 -244 351 -366 452 -759 799
-1348 1189 -138 92 -484 306 -493 306 -2 0 -81 -48 -177 -106z"/>
<path d="M6615 14368 c-55 -37 -124 -84 -153 -104 -55 -36 -331 -254 -457
-362 -38 -33 -147 -138 -240 -233 -479 -489 -817 -1027 -1048 -1672 -169 -469
-288 -1073 -312 -1587 -3 -69 -8 -135 -11 -147 -2 -12 2 -27 8 -33 16 -13 228
-150 233 -150 2 0 57 -35 122 -77 66 -43 127 -82 136 -88 19 -11 166 -106 269
-173 38 -25 73 -40 79 -36 7 4 9 3 6 -3 -5 -8 227 -166 268 -182 5 -2 28 -16
50 -31 47 -32 310 -191 375 -228 25 -13 50 -28 55 -32 22 -17 469 -262 497
-272 21 -9 22 2 53 937 27 779 64 1857 91 2608 9 247 14 451 11 453 -14 14
-286 25 -524 22 l-272 -3 27 28 c36 38 114 82 245 139 151 66 299 108 457 130
47 6 86 12 87 13 5 3 54 1098 51 1126 -3 26 -4 26 -103 -43z"/>
<path d="M9405 13570 c-3 -6 1 -7 9 -4 18 7 21 14 7 14 -6 0 -13 -4 -16 -10z"/>
<path d="M6680 13194 c-225 -21 -432 -67 -589 -130 -50 -20 -91 -37 -91 -39 0
-2 84 0 188 3 540 15 1075 -96 1371 -285 187 -119 468 -413 822 -859 302 -380
443 -569 1041 -1389 293 -401 298 -407 565 -765 247 -330 287 -382 477 -619
443 -553 794 -880 982 -917 l32 -6 6 273 c7 322 26 3722 21 3727 -2 2 -129 4
-282 5 l-278 2 -3 -998 -2 -998 -43 49 c-23 26 -63 75 -88 108 -267 343 -878
1107 -899 1124 -4 3 -24 28 -46 56 -98 125 -429 500 -569 644 -220 228 -360
352 -520 462 -392 271 -919 458 -1500 534 -108 14 -507 26 -595 18z"/>
<path d="M7670 10280 l0 -2000 273 0 272 0 -3 1091 -4 1091 41 -24 c71 -40
223 -155 311 -236 249 -227 413 -434 926 -1172 310 -445 510 -695 737 -922
325 -324 646 -533 1018 -663 467 -163 1023 -188 1619 -72 l115 22 -245 6
c-147 4 -287 13 -350 23 -942 148 -1665 688 -2484 1854 -137 195 -356 529
-626 952 -594 933 -842 1277 -1229 1704 -116 128 -345 346 -363 346 -4 0 -8
-900 -8 -2000z"/>
<path d="M5016 8027 c3 -10 9 -15 12 -12 3 3 0 11 -7 18 -10 9 -11 8 -5 -6z"/>
<path d="M13499 3537 c-25 -7 -66 -25 -91 -40 -51 -30 -143 -131 -134 -146 4
-5 1 -13 -5 -17 -8 -5 -9 -3 -4 6 5 9 4 11 -3 6 -7 -4 -12 -13 -12 -21 0 -7
-5 -15 -12 -17 -6 -2 -12 -14 -13 -25 0 -12 -6 -27 -11 -35 -34 -46 -57 -197
-44 -291 26 -179 106 -254 284 -264 142 -8 243 21 361 105 70 50 111 89 154
147 55 74 64 113 59 256 l-3 124 -39 50 c-21 28 -45 50 -52 50 -7 0 -16 4 -21
9 -5 5 -2 6 7 1 8 -4 2 4 -14 18 -67 61 -311 111 -407 84z m481 -213 c0 -8 -4
-14 -10 -14 -5 0 -10 9 -10 21 0 11 5 17 10 14 6 -3 10 -13 10 -21z"/>
<path d="M8385 4361 c-55 -21 -126 -50 -158 -65 l-57 -27 15 -29 c9 -17 21
-30 28 -30 22 0 291 100 304 114 5 5 -18 76 -25 76 -4 -1 -52 -18 -107 -39z"/>
<path d="M7560 3506 c-58 -17 -145 -61 -170 -86 -11 -11 -20 -17 -20 -13 0 12
-80 -71 -102 -105 -14 -23 -17 -37 -10 -44 13 -13 46 47 36 64 -4 6 -3 8 3 5
6 -4 30 11 54 33 24 22 72 55 106 72 34 18 59 37 56 42 -3 5 -1 6 4 3 6 -4 35
-2 64 3 30 6 86 11 126 12 63 0 78 -3 130 -32 117 -67 193 -141 242 -239 20
-39 22 -55 19 -170 -2 -97 -7 -134 -21 -162 -45 -90 -151 -178 -275 -226 -55
-22 -84 -27 -157 -27 -83 0 -96 3 -166 37 -42 20 -99 57 -126 81 -28 25 -53
42 -57 39 -4 -4 -4 0 -1 9 3 8 0 22 -8 29 -7 8 -15 19 -16 24 -2 6 -7 9 -13 7
-5 -1 -7 1 -4 6 3 5 -2 28 -11 53 -22 60 -21 219 1 278 20 55 6 79 -19 32 -9
-17 -13 -36 -10 -41 3 -6 1 -10 -4 -10 -7 0 -11 -44 -11 -126 0 -81 4 -123 10
-119 6 4 10 -6 10 -23 0 -19 15 -51 43 -89 138 -187 386 -255 588 -162 38 18
69 37 69 42 0 6 3 8 6 4 3 -3 11 -2 18 3 6 6 26 21 44 36 17 14 29 31 25 36
-3 7 -1 8 5 4 15 -9 63 44 57 62 -3 7 0 10 5 7 14 -9 38 56 51 144 11 68 10
89 -5 148 -19 79 -49 146 -61 135 -5 -4 -5 -1 -1 6 9 16 -12 44 -27 35 -5 -3
-7 -1 -4 4 15 24 -98 123 -118 105 -5 -4 -5 -2 -1 5 8 15 -49 47 -66 37 -6 -4
-8 -3 -5 3 18 30 -204 53 -283 29z"/>
<path d="M7605 3261 c-92 -24 -143 -86 -152 -185 -7 -78 11 -120 75 -176 44
-39 46 -40 124 -40 64 0 89 5 133 25 31 15 57 35 60 46 4 11 9 18 13 15 12
-13 29 51 31 117 3 87 -22 135 -88 170 -50 28 -146 41 -196 28z"/>
<path d="M14735 4237 c-47 -23 -82 -107 -64 -153 7 -20 15 -24 52 -24 52 0 94
19 129 59 48 53 47 91 -4 117 -22 11 -33 13 -41 5 -6 -6 -16 -11 -21 -11 -6 0
-4 5 4 10 21 14 -28 11 -55 -3z"/>
<path d="M6253 3643 c15 -2 39 -2 55 0 15 2 2 4 -28 4 -30 0 -43 -2 -27 -4z"/>
<path d="M6348 3643 c7 -3 16 -2 19 1 4 3 -2 6 -13 5 -11 0 -14 -3 -6 -6z"/>
<path d="M2338 3538 l-68 -21 0 -381 c0 -210 4 -387 8 -394 24 -37 190 -43
295 -10 55 17 78 31 122 75 37 37 52 59 48 70 -5 12 -3 14 7 8 10 -6 12 -4 7
9 -4 10 -3 15 3 11 5 -3 14 4 20 15 6 11 8 20 4 20 -3 0 -2 6 4 13 34 41 55
210 40 325 -10 69 -67 158 -123 188 -22 12 -47 29 -55 36 -8 8 -41 24 -73 36
-74 28 -150 27 -239 0z m249 -24 c-3 -3 -12 -4 -19 -1 -8 3 -5 6 6 6 11 1 17
-2 13 -5z m-220 -750 c-3 -3 -12 -4 -19 -1 -8 3 -5 6 6 6 11 1 17 -2 13 -5z
m140 -10 c-3 -3 -12 -4 -19 -1 -8 3 -5 6 6 6 11 1 17 -2 13 -5z m-100 -10 c-3
-3 -12 -4 -19 -1 -8 3 -5 6 6 6 11 1 17 -2 13 -5z m120 -10 c-3 -3 -12 -4 -19
-1 -8 3 -5 6 6 6 11 1 17 -2 13 -5z"/>
<path d="M15670 3558 c-19 -5 -46 -18 -60 -29 -14 -12 -19 -17 -11 -13 9 4 12
3 7 -4 -4 -6 -12 -9 -19 -6 -27 10 -146 -134 -131 -158 4 -6 3 -8 -3 -5 -9 6
-36 -52 -32 -70 2 -4 -3 -28 -10 -52 -8 -27 -10 -59 -5 -85 8 -43 9 -56 12
-94 1 -13 5 -21 10 -19 4 3 8 -7 8 -21 2 -36 72 -154 86 -146 7 4 8 2 4 -5 -9
-14 49 -75 63 -66 5 3 13 0 17 -6 5 -8 2 -10 -7 -4 -8 4 0 -4 16 -18 80 -68
207 -85 303 -41 31 14 59 29 62 33 3 5 16 14 29 21 66 34 159 148 187 227 16
47 17 59 5 130 -27 160 -125 308 -262 395 -66 42 -188 58 -269 36z m-22 -37
c11 -6 10 -10 -4 -15 -9 -3 -19 -4 -22 -1 -3 3 1 5 9 5 11 0 11 2 -1 10 -8 5
-10 10 -5 10 6 0 16 -4 23 -9z m455 -201 c-5 -20 -15 -25 -26 -14 -8 8 15 44
24 38 4 -2 5 -13 2 -24z m7 -425 c0 -9 -7 -18 -15 -21 -8 -4 -12 -10 -9 -15 3
-5 -3 -6 -12 -2 -11 4 -15 2 -11 -4 4 -6 1 -16 -6 -22 -25 -20 -12 28 14 54
28 28 39 31 39 10z m-535 -65 c3 -5 1 -10 -4 -10 -6 0 -11 5 -11 10 0 6 2 10
4 10 3 0 8 -4 11 -10z"/>
<path d="M5321 3269 c-18 -6 -42 -19 -54 -29 -20 -19 -20 -20 -1 -42 l19 -23
-23 20 c-23 19 -24 19 -38 0 -8 -10 -14 -15 -14 -9 -1 15 -33 -49 -38 -76 -13
-66 -5 -121 24 -163 45 -64 93 -85 191 -86 147 -2 217 55 219 179 3 170 -127
274 -285 229z m189 -159 c0 -5 -7 -10 -15 -10 -8 0 -15 5 -15 10 0 6 7 10 15
10 8 0 15 -4 15 -10z"/>
</g>
</svg>
